# xmcd
# 
# Track frame offsets:
#     150
#     12298
#     31918
#     46273
#     66451
#     81794
#     94276
#     109351
#     121844
#     134644
#     147158
#     162424
#     177280
#     194436
#     205635
#     218338
#     237056
#     250121
#     268098
#     282524
# 
# Disc length: 3948
# 
# Revision: 5
# Processed by: cddbd v1.5.2PL0 Copyright (c) Steve Scherf et al.
# Submitted via: BonkEnc v1.0.15
# 
DISCID=240f6a14
DTITLE=Johnny Cash zza1987-1989 - Johnny Cash is Coming to Town- Boom Chicka Boom
DYEAR=2003
DGENRE=Country
TTITLE0=The Big Light
TTITLE1=The Ballad Of Barbara
TTITLE2=I'd Rather Have You
TTITLE3=Let Him Roll
TTITLE4=The Night Hank Williams Came To Town
TTITLE5=Sixteen Tons
TTITLE6=Letters From Home
TTITLE7=W. Lee O'Daniel (and the Light Crust Dough Boys
TTITLE8=Heavy Metal (Don't Mean Rock and Roll to Me)
TTITLE9=My Ship Will Sail
TTITLE10=A Backstage Pass
TTITLE11=Cat's In The Cradle
TTITLE12=Farmer's Almanac
TTITLE13=Don't Go Near The Water
TTITLE14=Family Bible
TTITLE15=Harley
TTITLE16=I Love You, Love You
TTITLE17=Hidden Shame
TTITLE18=Monteagle Mountain
TTITLE19=That's One You Owe Me
EXTD=A:(c)1987 Polygram Records - Mercury Germany\n   Produced by Jack Clement, Original upc 042283203129\n\nB: (c)1990 Polygram Records/Mercury USA\n    Produced by Bob Moore, Original upc 042284215527\n\nRe-Release 2003 on Mercury Records/UMG Recordings
EXTD=, USA\nupc 008817028323\n YEAR: 2003
EXTT0=
EXTT1=
EXTT2=
EXTT3=
EXTT4=
EXTT5=
EXTT6=
EXTT7=
EXTT8=
EXTT9=
EXTT10=
EXTT11=
EXTT12=
EXTT13=
EXTT14=
EXTT15=
EXTT16=
EXTT17=
EXTT18=
EXTT19=
PLAYORDER=
